<?xml version="1.0" encoding="utf-8"?>
<!-- Generator: Adobe Illustrator 27.9.6, SVG Export Plug-In . SVG Version: 9.03 Build 54986)  -->
<svg version="1.1" id="Layer_1" xmlns="http://www.w3.org/2000/svg" xmlns:xlink="http://www.w3.org/1999/xlink" x="0px" y="0px"
	 viewBox="0 0 408 190" style="enable-background:new 0 0 408 190;" xml:space="preserve">
<style type="text/css">
	.st0{fill:#FFFFFF;}
</style>
<g>
	<path class="st0" d="M220.4,19c-0.3,0-0.7,0-1,0c0-0.3,0-0.7,0-1c0-8.5-6.8-15.4-15.3-15.4S188.7,9.5,188.7,18c0,0.4,0,0.7,0,1
		c-0.3,0-0.7,0-1,0c-8.4,0-15.3,6.9-15.3,15.4s6.8,15.4,15.3,15.4c0.3,0,0.7,0,1,0c0,0.3,0,0.7,0,1c0,8.5,6.9,15.4,15.3,15.4
		s15.3-6.9,15.3-15.4c0-0.3,0-0.7,0-1c0.3,0,0.7,0,1,0c8.4,0,15.3-6.9,15.3-15.4S228.9,19,220.4,19z"/>
	<path class="st0" d="M176.3,91.2l-0.2,3.7h0.8l0.1-0.5c0.3-1.4,0.6-2.1,3-2.1h2.6v10.9c0,2.7-0.3,3.1-2.5,3.1v0.8h8.4v-0.8
		c-2.2,0-2.6-0.5-2.6-3.1V92.3h2.6c2.5,0,2.7,0.6,3.1,2.1l0.1,0.5h0.8l-0.2-3.7H176.3L176.3,91.2z"/>
	<path class="st0" d="M194.6,106.4v0.8h8.4v-0.8c-2.2,0-2.6-0.5-2.6-3.1v-4h8.2v4c0,2.7-0.3,3.1-2.6,3.1v0.8h8.4v-0.8
		c-2.2,0-2.6-0.5-2.6-3.1v-8.2c0-2.6,0.3-3.1,2.6-3.1v-0.8H206V92c2.3,0,2.6,0.5,2.6,3.1v3h-8.2v-3c0-2.6,0.4-3.1,2.6-3.1v-0.8h-8.4
		V92c2.2,0,2.5,0.5,2.5,3.1v8.2C197.1,106,196.8,106.4,194.6,106.4z"/>
	<path class="st0" d="M217.2,106.4v0.8h14.6l0.2-3.7h-0.8L231,104c-0.3,1.4-0.6,2.1-3.1,2.1h-2.4c-2.2,0-2.6-0.5-2.6-3.1v-3.6h1.5
		c2.6,0,3.1,0.3,3.1,2.6h0.8v-6.3h-0.8c0,2.2-0.5,2.6-3.1,2.6H223v-5.8h4.1c2.5,0,2.7,0.6,3.1,2.1l0.1,0.5h0.8l-0.2-3.7h-13.7v0.8
		c2.3,0,2.5,0.5,2.5,3.1v8.2C219.6,106,219.3,106.5,217.2,106.4"/>
	<path class="st0" d="M46.3,172.8l-8.4-9.2c9.5-0.8,15.4-7,15.4-14.7c0-8.1-6.8-14.7-17.5-14.7H6.6v2.5c7.2,0,8.3,1.5,8.3,10.2v26.8
		c0,8.7-1,10.2-8.3,10.2v2.5h27.5V184c-7.2,0-8.3-1.5-8.3-10.2v-10.2h2.5l15.5,22.9h18.9V184C57.4,183.2,54,181.2,46.3,172.8
		 M25.8,159.7v-21.5h4.8c7.5,0,11.1,4.9,11.1,10.8c0,5.9-3.5,10.7-11.1,10.7H25.8z"/>
	<path class="st0" d="M99.6,132.8c-15.9,0-29,12.5-29,27.6s13,27.7,29,27.7c15.9,0,29-12.5,29-27.7S115.6,132.8,99.6,132.8z
		 M99.6,183.8c-12.3,0-17.3-12.9-17.3-23.5c0-10.5,5-23.4,17.3-23.4s17.3,12.9,17.3,23.4C116.9,170.9,111.9,183.8,99.6,183.8z"/>
	<path class="st0" d="M177.1,172.1c0-6.9-5-12.2-11.2-15.4l-8.4-4.3c-4.7-2.4-7-6.3-7-8.9c0-4.3,3.5-7,7-7c9.2,0,11.9,7.9,12.5,14.9
		h2.5v-19.2h-2.5c-0.5,1.8-1.5,3.1-2.5,4c-2.6-1.9-5.5-3.6-10.6-3.6c-8.4,0-15.2,5.9-15.2,13.1c0,8.6,4.4,12.7,11.7,16.5l8.3,4.3
		c4.1,2.1,6.4,5.7,6.4,8.8c0,5.8-3.7,8.7-8.7,8.7c-7.2,0-14.3-5.9-16.1-15.3H141v19.2h2.5c0.5-1.9,1.5-3.2,2.5-4.1
		c2.8,0.6,7,4.1,13.5,4.1c9,0,17.3-6.4,17.3-15.9"/>
	<path class="st0" d="M185.7,136.8c7.2,0,8.3,1.5,8.3,10.2v26.8c0,8.7-1,10.2-8.3,10.2v2.5h47.7l0.7-12.3h-2.5l-0.5,1.7
		c-1.1,4.6-2.1,6.7-10.1,6.7h-7.9c-7.2,0-8.3-1.5-8.3-10.2v-11.6h4.8c8.7,0,10.1,1,10.1,8.3h2.5v-20.7h-2.5c0,7.2-1.4,8.3-10.1,8.3
		h-4.8v-18.7h13.3c8,0,8.9,2,10.1,6.7l0.5,1.7h2.5l-0.7-12.3h-44.8V136.8z"/>
	<path class="st0" d="M287.4,176.3l-19-43.6h-1.9l-18.9,43.6c-2.7,6.2-4.7,7.7-10.7,7.7v2.5H258V184c-7.2,0-8.5-1.9-6.5-6.6l3.5-8.3
		h17.2l3.6,8.3c2,4.6,1.1,6.6-6.5,6.6v2.5h28.5V184c-7,0-8.2-2.1-10.6-7.7 M256.9,165.2l6.8-16l7,16H256.9z"/>
	<path class="st0" d="M293.2,134.3l-0.8,12.3h2.6l0.5-1.7c1.1-4.6,2.1-6.7,10-6.7h8.7v35.6c0,8.7-1,10.2-8.3,10.2v2.5h27.5V184
		c-7.2,0-8.4-1.5-8.4-10.2v-35.6h8.7c8,0,9,2,10.1,6.7l0.5,1.7h2.5l-0.7-12.3H293.2z"/>
	<path class="st0" d="M398.9,174.2l-0.5,1.7c-1.1,4.6-2.1,6.7-10.1,6.7h-7.8c-7.2,0-8.3-1.5-8.3-10.2v-11.6h4.8
		c8.7,0,10.1,1,10.1,8.3h2.5v-20.7h-2.5c0,7.2-1.4,8.3-10.1,8.3h-4.8v-18.7h13.3c8,0,8.8,2,10.1,6.6l0.4,1.7h2.5l-0.7-12.3H353v2.5
		c7.2,0,8.3,1.5,8.3,10.2v26.8c0,8.7-1,10.2-8.3,10.2v2.5h47.7l0.7-12.3L398.9,174.2L398.9,174.2z"/>
</g>
</svg>
